#!OML:ASF F:\VICON\USERDATA\INSTALL\rory3\rory3.ASF
:FULLY-SPECIFIED
:DEGREES
61
root -0.3826683929219752 18.234187967665903 32.884882009562126 -0.6055645832563334 0.7606888166567145 -4.931625129971508
lfemur -13.0894694219767 0.9006950359758812 -15.968850226697429
ltibia 80.50270419451806
lfoot 12.24220915871116 -13.786477359288847
ltoes -6.74239347975934
rfemur -19.16290959550407 4.061161787316713 31.636215876270732
rtibia 36.63029476938057
rfoot -6.192809671058406 -5.511570892588265
rtoes 10.433777925626082
lowerback 12.116615635245765 -0.44209120376321964 2.3226080149735076
upperback -0.08167126388805407 -0.12778278422236022 3.1751405296632402
thorax -7.154919874418191 -0.05813549908289506 1.5058474478295787
lowerneck -17.40655962652163 -2.7052225447777944 -2.5013655639563863
upperneck 17.595327734773093 -3.586496328594773 2.222035268102617
head 8.42967952224608 -1.6092923926495868 0.7058373714526116
lclavicle -3.719288301328916e-15 -3.37187477987032e-16
lhumerus -35.03835380448658 -10.112808180060638 91.98205794719742
lradius 70.40188456232455
lwrist 18.557539679288514
lhand -25.755507741380264 12.082303964811183
lfingers 7.125019999999999
lthumb 0.7818742631059301 42.06359950842062
rclavicle -3.719288301328916e-15 -3.37187477987032e-16
rhumerus -46.1364781476055 -9.823690805557675 -86.37006011599452
rradius 62.85042319584619
rwrist 0.618790351837581
rhand -16.139185351847022 31.597292465707216
rfingers 7.125019999999999
rthumb 10.065898430010348 1.9187317731864133
62
root -0.6921774713139486 18.41634278710498 33.520297540448084 2.177601498930972 1.0617401955028005 -4.926797140460419
lfemur -23.453902920910032 4.740721434709801 -16.402519571605723
ltibia 98.50095466544889
lfoot 9.579880733465638 -12.64459636484635
ltoes -11.709038134480014
rfemur -18.337569515697233 2.844478746593465 33.99384529173798
rtibia 45.79733476967691
rfoot -3.5523393319659426 -5.171111966074969
rtoes 12.28936506283153
lowerback 14.802653766063898 0.26825212805800924 3.098984304516744
upperback -0.6513802970201394 1.001406569682247 3.1614950043996037
thorax -9.452821116162383 0.45065071076332314 0.6453809502422799
lowerneck -18.65214606614202 -2.8763527970644 -2.3606465696703625
upperneck 13.915454515741628 -4.015400034690472 3.222783798970018
head 7.528644117705892 -1.6542921297277775 0.9409515040411733
lclavicle -2.8361935789668744e-15 9.804779625223627e-16
lhumerus -46.665664302200895 -16.750698423066275 99.49140555057492
lradius 111.42322547463796
lwrist 33.252734816946244
lhand -24.940671410548696 0.9874838179504735
lfingers 7.12502
lthumb 1.568844496486612 30.96981131212187
rclavicle -2.8361935789668744e-15 9.804779625223627e-16
rhumerus -56.46593995782778 6.122012796038556 -96.82655662768303
rradius 106.0401572877632
rwrist -9.1530068922445
rhand -15.672709146461942 39.58652363025953
rfingers 7.12502
rthumb 10.516028826500422 9.94135047065792
63
root -0.7004782778897012 18.29161875568176 33.1876083203573 2.4784662391239256 -0.40826122630009254 -5.292553009822063
lfemur -29.555163473319134 5.934004071747643 -16.33491497070881
ltibia 93.14819083935174
lfoot 3.3158260848524943 -9.712906306462472
ltoes -12.20164351014579
rfemur -14.815222866022435 2.9303866531074303 34.677706393333196
rtibia 44.444627374713406
rfoot -6.962436933255308 -5.330220834864333
rtoes 12.114003530151892
lowerback 14.962716842507566 0.7843484110977477 3.841296843782467
upperback -0.716916075564535 1.8254163601651026 2.8596887518185516
thorax -9.48281923747355 0.7891871075067677 -0.4179905575130233
lowerneck -18.944778222239286 -3.0358012119722586 -2.3152246822566562
upperneck 13.575769702034512 -4.263728790074312 3.1765801657732604
head 7.479387751507733 -1.7537081459050128 0.89895451637355
lclavicle -3.244499766759252e-15 6.842563878213644e-16
lhumerus -50.608528167425774 -15.679714906359685 99.06291033221672
lradius 109.68599260907011
lwrist 33.652182260727066
lhand -25.414075134710846 0.28274804148270616
lfingers 7.12502
lthumb 1.1116514297638316 30.265787642589746
rclavicle -3.244499766759252e-15 6.842563878213644e-16
rhumerus -52.66826553863993 8.756943886525889 -98.49547607846415
rradius 108.39395443599885
rwrist -10.560916361520789
rhand -16.104212756082614 39.09098294529258
rfingers 7.12502
rthumb 10.099724478878997 9.466797649411024
64
root -0.6781397291990409 18.062048647953784 33.95363120161302 3.1725252063679905 -1.5537333007733305 -5.689533004151155
lfemur -33.32687124154811 5.507818651353545 -15.437059389886068
ltibia 82.71821271222296
lfoot 1.1485867791805309 -6.670426097133157
ltoes -11.52712514886208
rfemur -10.702623112864853 3.11376374237985 35.61676984972952
rtibia 43.982485476071616
rfoot -9.732012244880298 -5.838608413667239
rtoes 12.315782828985874
lowerback 15.126272094757185 1.2718414106549147 4.799453567318712
upperback -0.7949220813477451 2.63507534465749 2.739647813719853
thorax -9.485340762595307 1.1190756660932173 -1.3102155556562156
lowerneck -19.51174432487971 -3.098956315048089 -2.249495157772514
upperneck 13.059507845769993 -4.331263917814475 3.1096896980613327
head 7.402707000296317 -1.7809708536856457 0.8630213040877438
lclavicle -2.8446118967641785e-15 9.741628771200849e-16
lhumerus -53.69273149273696 -14.062645324041913 98.54684366045191
lradius 107.93594482089897
lwrist 33.89838010785804
lhand -25.981659756484188 -0.28570677435079417
lfingers 7.12502
lthumb 0.5635102264858184 29.696671981962623
rclavicle -2.8446118967641785e-15 9.741628771200849e-16
rhumerus -48.442675901701016 11.49748612833276 -99.72273149755031
rradius 111.047633124416
rwrist -11.947676474048786
rhand -16.493200971869726 39.187498619759985
rfingers 7.12502
rthumb 9.724368405034342 9.583532610341429
